<?xml version="1.0" encoding="UTF-8" standalone="no"?>
<!-- Generator: Adobe Illustrator 19.0.0, SVG Export Plug-In . SVG Version: 6.00 Build 0)  -->

<svg
   xmlns:dc="http://purl.org/dc/elements/1.1/"
   xmlns:cc="http://creativecommons.org/ns#"
   xmlns:rdf="http://www.w3.org/1999/02/22-rdf-syntax-ns#"
   xmlns:svg="http://www.w3.org/2000/svg"
   xmlns="http://www.w3.org/2000/svg"
   xmlns:sodipodi="http://sodipodi.sourceforge.net/DTD/sodipodi-0.dtd"
   xmlns:inkscape="http://www.inkscape.org/namespaces/inkscape"
   version="1.1"
   id="Layer_1"
   x="0px"
   y="0px"
   viewBox="0 0 362.378 362.378"
   style="enable-background:new 0 0 362.378 362.378;"
   xml:space="preserve"
   sodipodi:docname="chart.svg"
   inkscape:version="0.92.0 r15299"><metadata
     id="metadata4544"><rdf:RDF><cc:Work
         rdf:about=""><dc:format>image/svg+xml</dc:format><dc:type
           rdf:resource="http://purl.org/dc/dcmitype/StillImage" /></cc:Work></rdf:RDF></metadata><defs
     id="defs4542" /><sodipodi:namedview
     pagecolor="#ffffff"
     bordercolor="#666666"
     borderopacity="1"
     objecttolerance="10"
     gridtolerance="10"
     guidetolerance="10"
     inkscape:pageopacity="0"
     inkscape:pageshadow="2"
     inkscape:window-width="1600"
     inkscape:window-height="837"
     id="namedview4540"
     showgrid="false"
     inkscape:zoom="2.340098"
     inkscape:cx="181.189"
     inkscape:cy="95.722488"
     inkscape:window-x="-8"
     inkscape:window-y="541"
     inkscape:window-maximized="1"
     inkscape:current-layer="Layer_1" /><circle
     style="fill:#efefef;fill-opacity:1"
     cx="183.916"
     cy="181.189"
     r="178.462"
     id="circle4485" /><g
     id="g4495"><rect
       x="14.439"
       y="255.577"
       style="fill:#D9D8D7;"
       width="51.392"
       height="49.428"
       id="rect4487" /><rect
       x="84.608"
       y="255.577"
       style="fill:#D9D8D7;"
       width="51.377"
       height="34.038"
       id="rect4489" /><rect
       x="154.772"
       y="255.577"
       style="fill:#D9D8D7;"
       width="51.372"
       height="28.315"
       id="rect4491" /><rect
       x="224.926"
       y="255.577"
       style="fill:#D9D8D7;"
       width="51.392"
       height="45.408"
       id="rect4493" /></g><rect
     x="14.439"
     y="118.518"
     style="fill:#4da4db;fill-opacity:1"
     width="9.396"
     height="135.458"
     id="rect4497" /><rect
     x="28.453"
     y="66.284"
     style="fill:#3e4959;fill-opacity:1"
     width="9.364"
     height="187.692"
     id="rect4499" /><rect
     x="42.442"
     y="136.34"
     style="fill:#4dc0b3;fill-opacity:1"
     width="9.401"
     height="117.652"
     id="rect4501" /><rect
     x="56.433"
     y="97.546"
     style="fill:#f15d3b;fill-opacity:1"
     width="9.381"
     height="156.431"
     id="rect4503" /><rect
     x="84.608"
     y="215.478"
     style="fill:#4da4db;fill-opacity:1"
     width="9.381"
     height="38.511"
     id="rect4505" /><rect
     x="98.599"
     y="166.395"
     style="fill:#3e4959;fill-opacity:1"
     width="9.383"
     height="87.594"
     id="rect4507" /><rect
     x="112.606"
     y="182.641"
     style="fill:#4dc0b3;fill-opacity:1"
     width="9.396"
     height="71.333"
     id="rect4509" /><rect
     x="126.612"
     y="124.77"
     style="fill:#f15d3b;fill-opacity:1"
     width="9.383"
     height="129.206"
     id="rect4511" /><rect
     x="154.772"
     y="207.897"
     style="fill:#4da4db;fill-opacity:1"
     width="9.378"
     height="46.09"
     id="rect4513" /><rect
     x="168.778"
     y="216.143"
     style="fill:#3e4959;fill-opacity:1"
     width="9.376"
     height="37.829"
     id="rect4515" /><rect
     x="182.759"
     y="146.457"
     style="fill:#4dc0b3;fill-opacity:1"
     width="9.393"
     height="107.532"
     id="rect4517" /><rect
     x="196.79"
     y="179.244"
     style="fill:#f15d3b;fill-opacity:1"
     width="9.359"
     height="74.742"
     id="rect4519" /><rect
     x="224.926"
     y="81.447"
     style="fill:#4da4db;fill-opacity:1"
     width="9.396"
     height="172.529"
     id="rect4521" /><rect
     x="238.932"
     y="135.65"
     style="fill:#3e4959;fill-opacity:1"
     width="9.398"
     height="118.326"
     id="rect4523" /><rect
     x="252.938"
     y="187.958"
     style="fill:#4dc0b3;fill-opacity:1"
     width="9.376"
     height="66.026"
     id="rect4525" /><rect
     x="266.944"
     y="108.204"
     style="fill:#f15d3b;fill-opacity:1"
     width="9.376"
     height="145.772"
     id="rect4527" /><path
     style="fill:#4da4db;fill-opacity:1"
     d="M315.134,109.113c-4.229,0-7.655,3.451-7.655,7.658c0,4.249,3.429,7.655,7.655,7.655   s7.638-3.409,7.638-7.655C322.772,112.564,319.362,109.113,315.134,109.113z"
     id="path4529" /><path
     style="fill:#3e4959;fill-opacity:1"
     d="M315.134,152.549c-4.229,0-7.655,3.414-7.655,7.658c0,4.207,3.429,7.655,7.655,7.655   s7.638-3.449,7.638-7.655C322.772,155.963,319.362,152.549,315.134,152.549z"
     id="path4531" /><path
     style="fill:#4dc0b3;fill-opacity:1"
     d="M315.134,195.993c-4.229,0-7.655,3.409-7.655,7.653c0,4.207,3.429,7.618,7.655,7.618   s7.638-3.412,7.638-7.618C322.772,199.399,319.362,195.993,315.134,195.993z"
     id="path4533" /><path
     style="fill:#f15d3b;fill-opacity:1"
     d="M315.134,239.387c-4.229,0-7.655,3.451-7.655,7.658c0,4.207,3.429,7.653,7.655,7.653   s7.638-3.446,7.638-7.653C322.772,242.838,319.362,239.387,315.134,239.387z"
     id="path4535" /><polygon
     style="fill:#242D3C;"
     points="5.445,253.977 5.445,57.386 0,57.386 0,58.996 3.838,58.996 3.838,85.457 0,85.457 0,87.097    3.838,87.097 3.838,113.558 0,113.558 0,115.17 3.838,115.17 3.838,141.632 0,141.632 0,143.271 3.838,143.271 3.838,169.733    0,169.733 0,171.343 3.838,171.343 3.838,197.804 0,197.804 0,199.444 3.838,199.444 3.838,225.905 0,225.905 0,227.515    3.838,227.515 3.838,255.564 291.483,255.564 291.483,253.977 "
     id="polygon4537" /></svg>