<?xml version="1.0" encoding="UTF-8" standalone="no"?>
<!-- Generator: Adobe Illustrator 19.1.0, SVG Export Plug-In . SVG Version: 6.00 Build 0)  -->

<svg
   xmlns:dc="http://purl.org/dc/elements/1.1/"
   xmlns:cc="http://creativecommons.org/ns#"
   xmlns:rdf="http://www.w3.org/1999/02/22-rdf-syntax-ns#"
   xmlns:svg="http://www.w3.org/2000/svg"
   xmlns="http://www.w3.org/2000/svg"
   xmlns:sodipodi="http://sodipodi.sourceforge.net/DTD/sodipodi-0.dtd"
   xmlns:inkscape="http://www.inkscape.org/namespaces/inkscape"
   version="1.1"
   id="Capa_1"
   x="0px"
   y="0px"
   viewBox="0 0 457.68 457.68"
   style="enable-background:new 0 0 457.68 457.68;"
   xml:space="preserve"
   sodipodi:docname="compatibility.svg"
   inkscape:version="0.92.0 r15299"><metadata
     id="metadata4544"><rdf:RDF><cc:Work
         rdf:about=""><dc:format>image/svg+xml</dc:format><dc:type
           rdf:resource="http://purl.org/dc/dcmitype/StillImage" /></cc:Work></rdf:RDF></metadata><defs
     id="defs4542" /><sodipodi:namedview
     pagecolor="#ffffff"
     bordercolor="#666666"
     borderopacity="1"
     objecttolerance="10"
     gridtolerance="10"
     guidetolerance="10"
     inkscape:pageopacity="0"
     inkscape:pageshadow="2"
     inkscape:window-width="1600"
     inkscape:window-height="837"
     id="namedview4540"
     showgrid="false"
     inkscape:zoom="0.65507184"
     inkscape:cx="135.74257"
     inkscape:cy="363.32812"
     inkscape:window-x="-8"
     inkscape:window-y="541"
     inkscape:window-maximized="1"
     inkscape:current-layer="Capa_1" /><path
     inkscape:connector-curvature="0"
     id="path4485"
     d="m 457.68,191.67 v 182.59 c 0,14.17 -11.53,25.7 -25.69,25.7 H 331.05 v 15.23 c 0,10.45 -8.5,18.95 -18.95,18.95 h -80.63 c -10.45,0 -18.95,-8.5 -18.95,-18.95 V 342.86 H 108.16 c -4.15,0 -7.5,-3.36 -7.5,-7.5 0,-4.14 3.35,-7.5 7.5,-7.5 h 18.22 l 12.16,-13.09 H 32.3 C 14.49,314.77 0,300.28 0,282.47 V 55.84 C 0,38.03 14.49,23.54 32.3,23.54 h 374.88 c 17.81,0 32.3,14.49 32.3,32.3 v 111.25 c 10.52,3.21 18.2,13.02 18.2,24.58 z m -15,182.59 v -2.05 H 331.05 v 12.75 h 100.94 c 5.89,0 10.69,-4.8 10.69,-10.7 z m 0,-17.05 V 208.72 H 270.19 v 46.31 h 41.91 c 10.45,0 18.95,8.5 18.95,18.95 v 83.23 z m 0,-163.49 v -2.05 c 0,-5.9 -4.8,-10.7 -10.69,-10.7 h -151.1 c -5.9,0 -10.7,4.8 -10.7,10.7 v 2.05 z m -18.2,-27.75 V 63.34 H 15 v 210.62 h 197.52 c 0.01,-10.44 8.51,-18.93 18.95,-18.93 h 23.72 v -63.36 c 0,-14.17 11.53,-25.7 25.7,-25.7 z M 16.73,48.34 h 406.01 c -2.8,-5.79 -8.71,-9.8 -15.56,-9.8 H 32.3 c -6.85,0 -12.77,4.01 -15.57,9.8 z m 299.32,366.85 v -9.85 h -88.53 v 9.85 c 0,2.18 1.77,3.95 3.95,3.95 h 80.63 c 2.17,0 3.95,-1.77 3.95,-3.95 z m 0,-24.85 v -91.5 h -88.53 v 91.5 z m 0,-106.5 v -9.86 c 0,-2.18 -1.78,-3.95 -3.95,-3.95 h -80.63 c -2.18,0 -3.95,1.77 -3.95,3.95 v 9.86 z m -103.53,44.02 v -13.09 h -53.5 l -12.17,13.09 z m 0,-28.09 V 288.96 H 16.27 c 2.57,6.33 8.78,10.81 16.03,10.81 z" /><path
     inkscape:connector-curvature="0"
     id="path4487"
     d="m 442.68,372.21 v 2.05 c 0,5.9 -4.8,10.7 -10.69,10.7 H 331.05 v -12.75 z"
     style="fill:#f15d3b;fill-opacity:1" /><path
     inkscape:connector-curvature="0"
     id="path4489"
     d="M 442.68,208.72 V 357.21 H 331.05 v -83.23 c 0,-10.45 -8.5,-18.95 -18.95,-18.95 h -41.91 v -46.31 z"
     style="fill:#f5f5f5;fill-opacity:1" /><path
     inkscape:connector-curvature="0"
     id="path4491"
     d="m 442.68,191.67 v 2.05 H 270.19 v -2.05 c 0,-5.9 4.8,-10.7 10.7,-10.7 h 151.1 c 5.89,0 10.69,4.8 10.69,10.7 z"
     style="fill:#f15d3b;fill-opacity:1" /><path
     inkscape:connector-curvature="0"
     id="path4493"
     d="M 424.48,63.34 V 165.97 H 280.89 c -14.17,0 -25.7,11.53 -25.7,25.7 v 63.36 h -23.72 c -10.44,0 -18.94,8.49 -18.95,18.93 H 15 V 63.34 Z"
     style="fill:#f5f5f5;fill-opacity:1" /><path
     inkscape:connector-curvature="0"
     id="path4495"
     d="M 422.74,48.34 H 16.73 c 2.8,-5.79 8.72,-9.8 15.57,-9.8 h 374.88 c 6.85,0 12.76,4.01 15.56,9.8 z"
     style="fill:#4da4db;fill-opacity:1" /><path
     inkscape:connector-curvature="0"
     id="path4497"
     d="m 316.05,405.34 v 9.85 c 0,2.18 -1.78,3.95 -3.95,3.95 h -80.63 c -2.18,0 -3.95,-1.77 -3.95,-3.95 v -9.85 z"
     style="fill:#f15d3b;fill-opacity:1" /><rect
     id="rect4499"
     height="91.5"
     width="88.529999"
     style="fill:#f5f5f5;fill-opacity:1"
     y="298.84"
     x="227.52" /><path
     inkscape:connector-curvature="0"
     id="path4501"
     d="m 316.05,273.98 v 9.86 h -88.53 v -9.86 c 0,-2.18 1.77,-3.95 3.95,-3.95 h 80.63 c 2.17,0 3.95,1.77 3.95,3.95 z"
     style="fill:#f15d3b;fill-opacity:1" /><polygon
     id="polygon4503"
     points="146.85,327.86 159.02,314.77 212.52,314.77 212.52,327.86 "
     style="fill:#4da4db;fill-opacity:1" /><path
     inkscape:connector-curvature="0"
     id="path4505"
     d="m 212.52,288.96 v 10.81 H 32.3 c -7.25,0 -13.46,-4.48 -16.03,-10.81 z"
     style="fill:#4da4db;fill-opacity:1" /><g
     id="g4509" /><g
     id="g4511" /><g
     id="g4513" /><g
     id="g4515" /><g
     id="g4517" /><g
     id="g4519" /><g
     id="g4521" /><g
     id="g4523" /><g
     id="g4525" /><g
     id="g4527" /><g
     id="g4529" /><g
     id="g4531" /><g
     id="g4533" /><g
     id="g4535" /><g
     id="g4537" /></svg>