<?xml version="1.0" encoding="iso-8859-1"?>
<!-- Generator: Adobe Illustrator 16.0.0, SVG Export Plug-In . SVG Version: 6.00 Build 0)  -->
<!DOCTYPE svg PUBLIC "-//W3C//DTD SVG 1.1//EN" "http://www.w3.org/Graphics/SVG/1.1/DTD/svg11.dtd">
<svg version="1.1" id="Capa_1" xmlns="http://www.w3.org/2000/svg" xmlns:xlink="http://www.w3.org/1999/xlink" x="0px" y="0px"
	 fill="#f15d3b" width="612px" height="612px" viewBox="0 0 612 612" style="enable-background:new 0 0 612 612;" xml:space="preserve">
	<g id="_x37__24_">
		<path d="M306,0C137.012,0,0,136.992,0,306s137.012,306,306,306s306-137.012,306-306S475.008,0,306,0z M431.001,322.811
			l-108.19,108.19c-4.59,4.59-10.862,6.005-16.811,4.953c-5.929,1.052-12.221-0.382-16.811-4.953l-108.19-108.19
			c-7.478-7.478-7.478-19.583,0-27.042c7.478-7.478,19.584-7.478,27.043,0l78.833,78.814V172.125
			c0-10.557,8.568-19.125,19.125-19.125c10.557,0,19.125,8.568,19.125,19.125v202.457l78.814-78.814
			c7.478-7.478,19.584-7.478,27.042,0C438.46,303.227,438.46,315.333,431.001,322.811z"/>
	</g>
</svg>