<?xml version="1.0" encoding="UTF-8" standalone="no"?>
<!-- Generator: Adobe Illustrator 16.0.0, SVG Export Plug-In . SVG Version: 6.00 Build 0)  -->

<svg
   xmlns:osb="http://www.openswatchbook.org/uri/2009/osb"
   xmlns:dc="http://purl.org/dc/elements/1.1/"
   xmlns:cc="http://creativecommons.org/ns#"
   xmlns:rdf="http://www.w3.org/1999/02/22-rdf-syntax-ns#"
   xmlns:svg="http://www.w3.org/2000/svg"
   xmlns="http://www.w3.org/2000/svg"
   xmlns:sodipodi="http://sodipodi.sourceforge.net/DTD/sodipodi-0.dtd"
   xmlns:inkscape="http://www.inkscape.org/namespaces/inkscape"
   version="1.1"
   id="Capa_1"
   x="0px"
   y="0px"
   fill="#f15d3b"
   width="612px"
   height="612px"
   viewBox="0 0 612 612"
   style="enable-background:new 0 0 612 612;"
   xml:space="preserve"
   sodipodi:docname="download-square.svg"
   inkscape:version="0.92.0 r15299"><metadata
     id="metadata3688"><rdf:RDF><cc:Work
         rdf:about=""><dc:format>image/svg+xml</dc:format><dc:type
           rdf:resource="http://purl.org/dc/dcmitype/StillImage" /><dc:title></dc:title></cc:Work></rdf:RDF></metadata><defs
     id="defs3686"><linearGradient
       id="linearGradient4529"
       osb:paint="solid"><stop
         style="stop-color:#0000ff;stop-opacity:1;"
         offset="0"
         id="stop4527" /></linearGradient></defs><sodipodi:namedview
     pagecolor="#ffffff"
     bordercolor="#666666"
     borderopacity="1"
     objecttolerance="10"
     gridtolerance="10"
     guidetolerance="10"
     inkscape:pageopacity="0"
     inkscape:pageshadow="2"
     inkscape:window-width="1920"
     inkscape:window-height="1017"
     id="namedview3684"
     showgrid="false"
     inkscape:zoom="0.97978195"
     inkscape:cx="322.0988"
     inkscape:cy="313.2164"
     inkscape:window-x="1592"
     inkscape:window-y="368"
     inkscape:window-maximized="1"
     inkscape:current-layer="_x37__24_" /><g
     id="_x37__24_"><path
       style="fill:#f15d3b;fill-opacity:1;fill-rule:nonzero;stroke:#f15d3b;stroke-width:8.81840801;stroke-miterlimit:4;stroke-dasharray:none;stroke-opacity:1"
       d="m 292.9858,633.28794 c -0.39639,-6.54243 -1.00813,-14.89409 -1.35941,-18.55923 l -0.63872,-6.66389 3.90528,-31.84615 c 10.01289,-81.65142 92.63003,-51.75391 149.50756,-106.17159 40.15227,-38.41575 63.65572,-34.37166 77.45775,-86.50327 6.74556,-25.47866 10.19488,-40.8992 10.16057,-69.31419 -0.0282,-23.33589 -1.64989,-40.9117 -6.28984,-62.29201 C 503.6165,150.04588 469.16032,101.611 363.83875,64.952044 332.63427,54.090805 293.69893,58.405712 293.01508,31.944057 L 292.19742,0.30436382 292.5318,-28.465417 c 0.1839,-15.823379 0.63139,-29.04525 0.99444,-29.381936 0.36305,-0.336686 69.19752,-7.217568 152.96551,-15.290848 83.76798,-8.073282 173.1143,-16.692654 198.54736,-19.154159 25.43306,-2.461505 58.57737,-0.304958 77.05611,8.988279 106.62192,53.549722 23.74223,726.501551 23.29463,726.872931 -0.27552,0.22861 -130.16494,56.18673 -203.817,58.2369 -73.65208,2.05016 -143.09984,-6.6144 -180.52468,-5.53271 -37.42484,1.0817 -62.83473,6.05298 -67.69341,6.05753 l 0.35176,-57.14757 z"
       id="path4533"
       inkscape:connector-curvature="0"
       sodipodi:nodetypes="cccssssssscssssccssccc" /><path
       d="M306,0C137.012,0,0,136.992,0,306s137.012,306,306,306s306-137.012,306-306S475.008,0,306,0z M431.001,322.811    l-108.19,108.19c-4.59,4.59-10.862,6.005-16.811,4.953c-5.929,1.052-12.221-0.382-16.811-4.953l-108.19-108.19    c-7.478-7.478-7.478-19.583,0-27.042c7.478-7.478,19.584-7.478,27.043,0l78.833,78.814V172.125    c0-10.557,8.568-19.125,19.125-19.125c10.557,0,19.125,8.568,19.125,19.125v202.457l78.814-78.814    c7.478-7.478,19.584-7.478,27.042,0C438.46,303.227,438.46,315.333,431.001,322.811z"
       id="path3680"
       style="fill:#9bcb3c;fill-opacity:1" /><path
       style="color:#000000;font-style:normal;font-variant:normal;font-weight:normal;font-stretch:normal;font-size:medium;line-height:normal;font-family:sans-serif;font-variant-ligatures:normal;font-variant-position:normal;font-variant-caps:normal;font-variant-numeric:normal;font-variant-alternates:normal;font-feature-settings:normal;text-indent:0;text-align:start;text-decoration:none;text-decoration-line:none;text-decoration-style:solid;text-decoration-color:#000000;letter-spacing:normal;word-spacing:normal;text-transform:none;writing-mode:lr-tb;direction:ltr;text-orientation:mixed;dominant-baseline:auto;baseline-shift:baseline;text-anchor:start;white-space:normal;shape-padding:0;clip-rule:nonzero;display:inline;overflow:visible;visibility:visible;opacity:1;isolation:auto;mix-blend-mode:normal;color-interpolation:sRGB;color-interpolation-filters:linearRGB;solid-color:#000000;solid-opacity:1;vector-effect:none;fill:none;fill-opacity:1;fill-rule:nonzero;stroke:none;stroke-width:8.4;stroke-linecap:butt;stroke-linejoin:miter;stroke-miterlimit:4;stroke-dasharray:none;stroke-dashoffset:0;stroke-opacity:1;color-rendering:auto;image-rendering:auto;shape-rendering:auto;text-rendering:auto;enable-background:accumulate"
       d="M 692.47266,-104.01758 307.74023,-64.111328 305.6875,52.861328 506.67578,306.9043 414.00586,515.66797 302.60742,558.5918 l 0.0215,0.36718 6.15429,97.44336 407.19727,-12.27734 z m -0.96485,1.10352 23.44141,746.07031 -405.22852,12.2168 -6.07031,-96.11133 L 414.75,516.45312 507.83594,306.75586 306.69336,52.521484 308.72461,-63.208984 Z"
       id="path3694"
       inkscape:connector-curvature="0" /></g></svg>