<?xml version="1.0" encoding="iso-8859-1"?>
<!-- Generator: Adobe Illustrator 19.0.0, SVG Export Plug-In . SVG Version: 6.00 Build 0)  -->
<svg version="1.1" id="Layer_1" xmlns="http://www.w3.org/2000/svg" xmlns:xlink="http://www.w3.org/1999/xlink" x="0px" y="0px"
	 viewBox="0 0 508 508" style="enable-background:new 0 0 508 508;" xml:space="preserve">
<circle style="fill:#324A5E;" cx="254" cy="254" r="254"/>
<path style="fill:#E6E9EE;" d="M423,372.4H85c-1.8,0-3.3-1.5-3.3-3.3V138.9c0-1.8,1.5-3.3,3.3-3.3h338c1.8,0,3.3,1.5,3.3,3.3v230.2
	C426.3,370.9,424.8,372.4,423,372.4z"/>
<path style="fill:#CED5E0;" d="M86.1,369c2.3,2.1,5.4,3.4,8.8,3.4h318.2c3.4,0,6.5-1.3,8.8-3.4L254,236.4L86.1,369z"/>
<path style="fill:#FFFFFF;" d="M270.4,269.1l151.7-130c-2.4-2.2-5.5-3.6-9-3.6H94.9c-3.5,0-6.6,1.4-9,3.6l151.7,130
	C247,277.2,261,277.2,270.4,269.1z"/>
<g>
</g>
<g>
</g>
<g>
</g>
<g>
</g>
<g>
</g>
<g>
</g>
<g>
</g>
<g>
</g>
<g>
</g>
<g>
</g>
<g>
</g>
<g>
</g>
<g>
</g>
<g>
</g>
<g>
</g>
</svg>
