<svg id="Layer_1" data-name="Layer 1" xmlns="http://www.w3.org/2000/svg" xmlns:xlink="http://www.w3.org/1999/xlink" viewBox="0 0 915.47 792.93"><defs><style>.cls-1{stroke:#fff;stroke-miterlimit:10;stroke-width:100px;fill:url(#linear-gradient);}.cls-2{fill:#fff;}</style><linearGradient id="linear-gradient" x1="57.74" y1="396.47" x2="857.74" y2="396.47" gradientUnits="userSpaceOnUse"><stop offset="0" stop-color="#fff" stop-opacity="0"/><stop offset="1" stop-color="#fff" stop-opacity="0"/></linearGradient></defs><title>hex-transparent-white</title><polygon class="cls-1" points="657.82 742.83 257.82 742.93 57.73 396.57 257.65 50.11 657.65 50.01 857.74 396.37 657.82 742.83"/><path class="cls-2" d="M7027.7,7124.2h72.6v14.6h-55.2v44.8h51V7198h-51v61h-17.4Z" transform="translate(-6741.76 -6803.53)"/><path class="cls-2" d="M7125.1,7124.2h17.4v120.2h57.6V7259h-75Z" transform="translate(-6741.76 -6803.53)"/><path class="cls-2" d="M7241.3,7216.6l-14,42.4h-18l45.8-134.8h21l46,134.8H7303.5l-14.4-42.4Zm44.2-13.6-13.2-38.8c-3-8.8-5-16.8-7-24.6h-.4c-2,8-4.2,16.2-6.8,24.4l-13.2,39Z" transform="translate(-6741.76 -6803.53)"/><path class="cls-2" d="M7352.1,7139h-41v-14.8h99.8V7139h-41.2v120h-17.6Z" transform="translate(-6741.76 -6803.53)"/></svg>