<svg id="Layer_1" data-name="Layer 1" xmlns="http://www.w3.org/2000/svg" viewBox="0 0 579.49 579.49"><defs><style>.cls-1{fill:#f15d3b;}</style></defs><title>logo-nt-orange</title><path class="cls-1" d="M459.78,209.53V524.36A289.34,289.34,0,0,0,579.49,289.75C579.49,129.72,449.77,0,289.75,0A288.38,288.38,0,0,0,141.13,41V368.56a60.82,60.82,0,0,0,22.07,46.88l37.95,31.37V226.38L378.31,446.22v34.13L222.57,287.08V492.31L148.47,431A79.26,79.26,0,0,1,119.71,370V55.14A289.34,289.34,0,0,0,0,289.75c0,160,129.72,289.75,289.75,289.75a288.38,288.38,0,0,0,148.61-41V210.93a60.82,60.82,0,0,0-22.07-46.88l-37.95-31.37V353.12L201.13,133.35V99.22L356.92,292.41V87.18L431,148.44a79.26,79.26,0,0,1,28.76,61.09"/></svg>