<?xml version="1.0" encoding="iso-8859-1"?>
<!-- Generator: Adobe Illustrator 19.0.0, SVG Export Plug-In . SVG Version: 6.00 Build 0)  -->
<svg version="1.1" id="Layer_1" xmlns="http://www.w3.org/2000/svg" xmlns:xlink="http://www.w3.org/1999/xlink" x="0px" y="0px"
	 viewBox="0 0 511.997 511.997" style="enable-background:new 0 0 511.997 511.997;" xml:space="preserve">
<g>
	<g>
		<path d="M476.729,360.211c-0.081-0.539-0.198-1.033-0.198-1.536v-8.812l-4.761-2.542c-39.622-21.127-58.88-51.586-58.88-93.103
			c0-34.897,15.324-64.817,43.152-84.318l10.941-5.407l-7.168-8.74c-18.576-22.645-48.784-52.745-96.472-52.745
			c-8.884,0-17.103,2.138-25.178,5.219c19.402-21.136,29.912-47.903,29.912-78.632c0-4.779-0.566-10.303-1.222-16.689l-0.216-2.084
			c-0.045-0.431-0.126-0.862-0.225-1.284l-0.692-2.749c-0.593-2.335-2.093-4.339-4.168-5.551c-2.093-1.222-4.554-1.554-6.89-0.925
			c-47.499,12.827-98.25,50.374-98.25,117.248c0,3.575,0.35,7.725,0.871,12.081c-7.869-2.048-14.749-5.928-22.321-10.267
			c-12.297-7.024-26.229-15.001-46.466-15.001c-90.606,0-153.744,82.234-153.744,156.043c0,40.583,12.755,110.888,48.667,175.454
			c27.361,49.808,59.832,76.126,93.903,76.126c12.513,0,25.151-4.788,38.526-9.854c14.848-5.632,30.199-11.444,46.799-11.444
			c13.537,0,27.37,4.824,40.744,9.485c13.761,4.806,27.998,9.773,42.469,9.773c71.249,0,131.377-88.666,131.377-144.348
			C477.241,363.58,476.989,361.828,476.729,360.211z"/>
	</g>
</g>
<g>
</g>
<g>
</g>
<g>
</g>
<g>
</g>
<g>
</g>
<g>
</g>
<g>
</g>
<g>
</g>
<g>
</g>
<g>
</g>
<g>
</g>
<g>
</g>
<g>
</g>
<g>
</g>
<g>
</g>
</svg>
