<?xml version="1.0" encoding="utf-8"?>
<!-- Generator: Adobe Illustrator 20.1.0, SVG Export Plug-In . SVG Version: 6.00 Build 0)  -->
<svg version="1.1" id="Layer_1" xmlns="http://www.w3.org/2000/svg" xmlns:xlink="http://www.w3.org/1999/xlink" x="0px" y="0px"
	 viewBox="0 0 579.5 579.5" style="enable-background:new 0 0 579.5 579.5;" xml:space="preserve">
<style type="text/css">
	.st0{fill:#FFFFFF;}
</style>
<title>logo-dark</title>
<path class="st0" d="M289.8,0C129.7,0,0,129.7,0,289.8s129.7,289.8,289.8,289.8s289.8-129.7,289.8-289.8S449.8,0,289.8,0z
	 M480.5,480.5c-7,7-14.4,13.7-22.1,19.8c0-17.3-0.1-34.7-0.1-52c0-57.8,0-115.6,0-173.4c0-26.4,3.2-65.9-3-86.8
	c-7.2-24.2-23.2-37.2-40.6-51.1c-19.5-16.2-38.9-32.4-58.4-48.5c-0.1-0.1-0.1-0.1-0.2-0.2c-0.1,68.1-0.3,136.1-0.4,204.2
	c-51.6-64-103.2-128-154.8-192c-0.1,11.3-0.1,22.7-0.2,34c11.3,13.8,22.5,27.7,33.8,41.5c47.5,59,95.1,118,142.6,177
	c0-73.1,0-146.3,0-219.4c5.7,4.7,11.4,9.4,17.1,14.1c15.4,12.3,31.7,23.1,39.3,43.2c4.3,11.3,3.4,28,3.4,43.6c0,21.7,0,43.3,0,65
	c0,72.1,0,144.3,0,216.5c-13.3,8.7-27.3,16.1-42.1,22.4c-33.2,14.1-68.6,21.2-105,21.2s-71.7-7.1-105-21.2
	c-32.1-13.6-61-33-85.7-57.8c-24.8-24.8-44.2-53.6-57.8-85.7C27.1,361.5,20,326.2,20,289.8s7.1-71.7,21.2-105
	c13.6-32.1,33-61,57.8-85.7c6.4-6.4,13.2-12.5,20.1-18.2c0,16.9,0.1,33.9,0.1,50.8c0,57.8,0,115.6,0,173.4c0,26.4-3.2,65.9,3,86.8
	c7.2,24.2,23.2,37.2,40.6,51.1c19.5,16.2,38.9,32.4,58.4,48.5c0.1,0.1,0.1,0.1,0.2,0.2c0.1-68.1,0.3-136.1,0.4-204.2
	c51.6,64.1,103.2,128.2,154.8,192.2c0.1-11.3,0.1-22.7,0.2-34c-11.4-14-22.8-28.1-34.2-42.1c-47.4-58.9-94.8-117.8-142.2-176.6
	c0,73.1,0,146.3,0,219.4c-5.7-4.7-11.4-9.4-17.1-14.1c-15.4-12.3-31.7-23.1-39.3-43.2c-4.3-11.3-3.4-28-3.4-43.6c0-21.7,0-43.3,0-65
	c0-71.8,0-143.7,0-215.6c13.9-9.2,28.6-17.1,44.1-23.7C218,27.1,253.3,20,289.8,20s71.7,7.1,105,21.2c32.1,13.6,61,33,85.7,57.8
	c24.8,24.8,44.2,53.6,57.8,85.7c14.1,33.2,21.2,68.6,21.2,105s-7.1,71.7-21.2,105C524.7,426.9,505.3,455.7,480.5,480.5z"/>
</svg>
